<?xml version="1.0" encoding="utf-8"?>
<!-- Generator: Adobe Illustrator 28.3.0, SVG Export Plug-In . SVG Version: 6.00 Build 0)  -->
<svg version="1.1" id="图层_1" xmlns="http://www.w3.org/2000/svg" xmlns:xlink="http://www.w3.org/1999/xlink" x="0px" y="0px"
	 viewBox="0 0 1024 1024" style="enable-background:new 0 0 1024 1024;" xml:space="preserve">
<style type="text/css">
	.st0{fill:#284268;}
	.st1{fill:#4F90CD;}
	.st2{fill:#FEFEFF;}
</style>
<g>
	<path class="st0" d="M275.89,84.82c9.04-4.59,15.53-12.35,23-18.85c20.27-17.63,40.86-34.67,66.91-43.34
		c10.37-3.45,20.96-5.39,31.97-5.38c90.38,0.07,180.76-0.02,271.13,0.03c27.45,0.01,51.27,8.9,70.31,29.31
		c21.67,23.23,43.48,46.34,65.23,69.5c7.53,16.11,9.01,33.24,8.93,50.73c-0.16,33.01-0.05,66.02-0.03,99.02
		c0.02,73.97,0.04,147.95,0.15,221.92c0,2.74-1.52,6.7,1.47,8.01c3.06,1.34,4.96-2.49,6.93-4.41c11.15-10.9,22.02-22.1,33.17-33
		c29.75-29.1,64.22-38.91,104.39-25.36c4.97,1.68,9.12,5.37,15.26,6.05c-0.46-15.98-4.49-31.03-8.59-45.92
		c-22.59-81.95-66.39-150.97-129.27-207.73c-9.84-8.89-7.69-18.57-6.77-28.17c0.77-8.1,9.47-9.37,16.18-11.47
		c81.81,68.84,137.92,153.71,161.95,258.77c5.55,24.25,7.69,48.86,8.03,73.54c0.17,12.13,4.7,22.95,6.47,34.52
		c2.2,14.36,1.78,28.59-2.56,41.93c-5.33,16.37-7.28,33.28-11.11,49.85c-9.93,43.02-25.33,83.94-45.94,122.97
		c-12.25,23.18-26.69,44.89-41.42,66.55c-10.62,15.61-21.38,31.01-35.09,43.74c-26.29,24.4-53.26,47.88-82.61,68.92
		c-40.52,29.05-83.42,53.09-129.82,70.65c-46.84,17.72-95.73,27.04-145.75,29.11c-120.56,5-226.03-35.55-322.16-105.97
		C129.28,844,73.12,771.9,35.99,684.56C19.22,645.1,8.07,603.95,3.29,561.31c-14.96-133.55,21.12-251.64,108.25-354.02
		c18.16-21.34,37.46-41.59,59.32-59.24c5.14,1.9,11.15,2.25,13.84,8.33c4.15,9.41,0.85,27.01-6.71,34
		c-37.75,34.89-68.53,75.12-92.53,120.56c-31.4,59.45-45.62,123.15-46.41,190.04C38.59,539.4,45.07,577,54.11,614.22
		c19.55,80.46,60.81,148.55,118.54,207.08c5.27,5.34,10.49,11.75,19.96,14.59c0-8.97,0-17.13,0-25.29
		c0.02-99.6,0.06-199.2,0.06-298.79c0-103.72-0.1-207.45,0.04-311.17c0.02-17.26,1.83-34.29,15.12-47.44
		c14.17-14.03,28.61-27.78,42.57-42.01C258.96,102.47,269.39,95.53,275.89,84.82z M662.9,727.89c-12.86,9.8-25.66,19.69-38.65,29.32
		c-2.46,1.82-4.34,3.76-4.85,6.65c-3.64,20.79-6.73,41.7-10.98,62.37c-1.75,8.5,1.88,8.95,7.92,7.73
		c15.54-3.15,30.9-7.52,46.57-9.56c17.62-2.3,31.56-9.91,42.8-23.24c4.96-2.97,9.51-6.96,16.12-3.73c13.7,6.7,25.13,2.13,35.03-7.98
		c17.1-17.46,34.08-35.03,51.08-52.59c22.73-23.48,45.29-47.14,68.24-70.39c6.02-6.1,6.49-10.36,0-16.56
		c-20.43-19.51-40.24-39.67-60.53-59.33c-7.3-7.08-11.94-6.52-20.14,1.82c-38.39,39.06-78.5,76.34-118.36,113.87
		C670.57,712.46,665.15,719.03,662.9,727.89z M699.97,92.28c-1.37-1.9-2.99-3.67-4.07-5.72c-10.52-19.97-27.12-27.13-49.42-26.96
		c-80.45,0.62-160.9,0.64-241.35-0.18c-17.75-0.18-29.6,9.47-28.98,29.27c0.88,27.93,1.64,56-1.11,83.9
		c-3.03,30.74-27.89,52.16-58.71,51.81c-23.28-0.27-46.58,0.38-69.83-0.41c-8.62-0.29-9.7,2.68-9.7,10.17
		c0.17,199.21,0.12,398.41,0.1,597.62c0,31.75,28.76,64.3,60.38,68.32c2.09,1.55,4.52,1.06,6.83,1.06
		c69.2,0.04,138.4,0.15,207.6-0.01c14.37-0.03,28.79,0.85,43.13-1.01c12.05,0.01,24.09,0.02,36.14,0.02
		c1.42,0.28,2.83,0.79,4.25,0.79c39.66,0.1,79.32,0.16,118.97,0.16c1.68,0,3.35-0.67,5.03-1.03c27.91-3,52.42-36.44,46.99-54.58
		c-6.02,1.42-11.79,3.4-16.76,7.24c-8.08,6.25-18.09,8.85-27.44,9.7c-23.14,2.11-46.11,5.22-68.87,9.56
		c-31.28,5.96-62.37,12.98-93.49,19.75c-2.24,0.49-4.24,2.24-6.41,0.29c-2.16-1.95-0.92-4.05-0.36-6.41
		c8.13-33.73,13.49-67.97,18.49-102.28c3.56-14,5.33-28.27,6.53-42.63c0.47-5.08,1.88-9.54,6.25-12.91
		c18.96-14.6,36.58-30.76,54.07-47.06c15.66-12.87,30.72-26.36,43.5-42.19c3.55-1.06,5.97-3.72,8.52-6.14
		c24.35-23.05,48.57-46.23,73.07-69.12c4.47-4.18,6.1-8.49,6.09-14.56c-0.19-129.65-0.18-259.3-0.24-388.95
		c0-3.81-0.36-7.63-0.55-11.44c-0.9-6.57-5.42-10.95-9.62-15.43c-15.09-16.09-30.19-32.16-45.51-48.04
		c-5.44-5.64-10.39-12.09-18.97-15.78C696.9,77.53,701.11,84.33,699.97,92.28z M814.52,851.13
		c66.57-54.6,111.74-121.9,141.12-202.88c-11.67,11.39-21.71,21.22-31.78,31.01c-28.87,28.09-56.08,57.84-85.93,84.95
		c-8.2,7.45-14.93,16.52-22.35,24.83c-2.25,2.52-3.39,5.31-3.39,8.79C812.23,814.88,811.79,831.93,814.52,851.13z M981.43,533.81
		c0.07-31.36-16.48-54.67-41.37-60.84c-25.27-6.26-43.6,5.52-59.09,24.17c-4.5,5.42-4.48,9.21,0.65,14.16
		c21.8,21.05,43.41,42.32,64.89,63.7c4.3,4.28,7.79,4.04,12.16,0.45C973.12,563.58,980.84,548.44,981.43,533.81z M374.69,943.89
		c87.71,27.89,175.44,31.34,263.2,0C550.15,943.89,462.42,943.89,374.69,943.89z M241.75,180.94c0.35,0.81,0.7,1.61,1.05,2.42
		c21.27-0.55,42.63,1.77,63.79-1.14c19.28-2.65,25.63-11.04,25.77-30.26c0.07-9.12,0.04-18.25,0.05-27.37c0.01-8.89,0-17.77,0-29.37
		C300.77,125.13,271.26,153.03,241.75,180.94z M848.59,533.83c-5.33,3.33-10.17,6.71-13.21,11.88c-2.48,4.22-0.62,7.81,2.61,11
		c22.23,22.04,44.54,43.99,66.52,66.28c6.68,6.77,11.25,3.39,16.06-1.75c4.64-4.96,8.38-9.64,1.57-16.23
		c-23.06-22.28-45.8-44.89-68.69-67.34C852.01,536.28,850.3,535.18,848.59,533.83z"/>
	<path class="st1" d="M275.89,84.82c-6.5,10.71-16.92,17.65-25.48,26.38c-13.96,14.23-28.4,27.99-42.57,42.01
		c-13.28,13.15-15.09,30.18-15.12,47.44c-0.14,103.72-0.04,207.45-0.04,311.17c0,99.6-0.04,199.2-0.06,298.79
		c0,8.16,0,16.33,0,25.29c-9.47-2.84-14.69-9.25-19.96-14.59c-57.73-58.53-99-126.62-118.54-207.08
		C45.07,577,38.59,539.4,39.04,500.98c0.79-66.88,15.02-130.58,46.41-190.04c24-45.44,54.78-85.67,92.53-120.56
		c7.56-6.99,10.86-24.59,6.71-34c-2.68-6.08-8.7-6.43-13.84-8.33c25.99-23.96,53.52-45.79,84.92-62.43
		C262.57,82.01,268.95,79.48,275.89,84.82z"/>
	<path class="st1" d="M846.24,145.77c-6.71,2.1-15.4,3.37-16.18,11.47c-0.92,9.6-3.07,19.29,6.77,28.17
		c62.89,56.77,106.69,125.78,129.27,207.73c4.1,14.89,8.13,29.93,8.59,45.92c-6.14-0.68-10.29-4.38-15.26-6.05
		c-40.17-13.54-74.65-3.74-104.39,25.36c-11.15,10.91-22.02,22.1-33.17,33c-1.97,1.92-3.86,5.75-6.93,4.41
		c-2.99-1.31-1.47-5.27-1.47-8.01c-0.11-73.97-0.12-147.95-0.15-221.92c-0.01-33.01-0.13-66.02,0.03-99.02
		c0.09-17.49-1.39-34.62-8.93-50.73C821.36,121.78,834.79,132.38,846.24,145.77z"/>
	<path class="st2" d="M571.41,783.35c-5,34.3-10.36,68.55-18.49,102.28c-0.57,2.36-1.8,4.46,0.36,6.41c2.16,1.96,4.16,0.2,6.41-0.29
		c31.13-6.76,62.21-13.79,93.49-19.75c22.75-4.33,45.72-7.45,68.87-9.56c9.35-0.85,19.36-3.46,27.44-9.7
		c4.97-3.84,10.74-5.82,16.76-7.24c5.43,18.15-19.08,51.58-46.98,54.58c-11.41-0.11-22.83-0.32-34.24-0.29
		c-31.34,0.07-62.68,0.24-94.02,0.38c-12.05-0.01-24.09-0.02-36.13-0.02c-4.98-0.17-9.96-0.48-14.94-0.48
		c-64.71,0.02-129.43,0.06-194.14,0.14c-16.16,0.02-32.33,0.2-48.49,0.3c-31.62-4.02-60.38-36.57-60.38-68.32
		c0.01-199.21,0.07-398.41-0.1-597.62c-0.01-7.49,1.07-10.46,9.7-10.17c23.25,0.79,46.55,0.14,69.83,0.41
		c30.82,0.35,55.68-21.07,58.71-51.81c2.75-27.9,1.99-55.98,1.11-83.9c-0.62-19.8,11.23-29.45,28.98-29.27
		c80.44,0.81,160.9,0.8,241.35,0.18c22.3-0.17,38.9,6.99,49.42,26.96c1.08,2.05,2.7,3.82,4.07,5.73
		c21.09,20.9,35.77,49.65,68.68,56.07c0.19,3.81,0.55,7.63,0.55,11.44c0.06,129.65,0.04,259.3,0.24,388.95
		c0.01,6.07-1.62,10.38-6.09,14.56c-24.5,22.89-48.72,46.07-73.07,69.12c-2.55,2.41-4.97,5.08-8.52,6.14
		c-2.91-0.28-5.82-0.79-8.73-0.79c-113.73-0.02-227.46,0-341.19,0.02c-3.24,0-6.5-0.09-9.72,0.18
		c-12.49,1.07-20.72,12.14-18.17,24.27c2.14,10.19,10.93,16.69,22.88,16.69c96.94,0.03,193.87-0.02,290.81,0.14
		c6.86,0.01,13.96-1.34,20.62,1.67c-17.5,16.3-35.11,32.46-54.07,47.06c-4.38,3.37-5.78,7.83-6.25,12.91
		c-3.57,1.99-7.48,1.3-11.27,1.3c-78.39,0.08-156.77,0.12-235.16,0.18c-3.24,0-6.5-0.13-9.72,0.2c-10.73,1.1-19.88,11.09-19.17,20.7
		c0.79,10.74,10.47,20.23,21.47,19.41c22.96-1.71,45.89,0.19,68.85-0.22c52.44-0.93,104.9-0.35,157.35-0.25
		C557.34,782.06,564.38,782.9,571.41,783.35z M323.18,388.42c-0.73,104.78,81.08,189.53,182.89,191.28
		c100.93,1.73,189.41-78.82,190.21-187.29c0.79-106.6-81.01-191.47-186.27-192.67C406.12,198.56,322.66,285.36,323.18,388.42z"/>
	<path class="st1" d="M662.9,727.89c2.24-8.87,7.67-15.43,14.25-21.62c39.86-37.53,79.97-74.81,118.36-113.87
		c8.2-8.34,12.83-8.9,20.14-1.82c20.29,19.66,40.1,39.81,60.53,59.33c6.49,6.2,6.03,10.46,0,16.56
		c-22.96,23.26-45.51,46.91-68.24,70.39c-17,17.56-33.98,35.13-51.08,52.59c-9.9,10.11-21.33,14.68-35.03,7.98
		c-6.61-3.23-11.15,0.76-16.12,3.73c-0.72-3.43-3.53-5.32-5.74-7.62c-11.34-11.79-23.4-22.88-33.36-35.98
		c-4.01-5.27-6.25-10.11-3.59-16.87C664.56,736.77,667.94,732.07,662.9,727.89z"/>
	<path class="st1" d="M638.26,680.75c-6.67-3.01-13.76-1.66-20.62-1.67c-96.94-0.15-193.87-0.11-290.81-0.14
		c-11.95,0-20.74-6.5-22.88-16.69c-2.55-12.13,5.68-23.2,18.17-24.27c3.22-0.28,6.48-0.18,9.72-0.18
		c113.73-0.03,227.46-0.05,341.19-0.02c2.91,0,5.82,0.52,8.73,0.79C668.98,654.39,653.92,667.88,638.26,680.75z"/>
	<path class="st1" d="M571.41,783.35c-7.04-0.45-14.07-1.29-21.11-1.3c-52.45-0.11-104.92-0.69-157.35,0.25
		c-22.96,0.41-45.89-1.49-68.85,0.22c-10.99,0.82-20.68-8.67-21.47-19.41c-0.71-9.62,8.44-19.6,19.17-20.7
		c3.21-0.33,6.48-0.2,9.72-0.2c78.39-0.06,156.77-0.1,235.16-0.18c3.78,0,7.69,0.69,11.27-1.3
		C576.75,755.08,574.97,769.35,571.41,783.35z"/>
	<path class="st1" d="M814.52,851.13c-2.73-19.2-2.29-36.25-2.33-53.3c-0.01-3.48,1.14-6.27,3.39-8.79
		c7.43-8.31,14.15-17.38,22.35-24.83c29.85-27.12,57.06-56.87,85.93-84.95c10.07-9.8,20.11-19.62,31.78-31.01
		C926.26,729.23,881.09,796.53,814.52,851.13z"/>
	<path class="st2" d="M981.43,533.81c-0.58,14.63-8.31,29.77-22.77,41.65c-4.37,3.59-7.86,3.83-12.16-0.45
		c-21.48-21.38-43.08-42.65-64.89-63.7c-5.13-4.95-5.15-8.74-0.65-14.16c15.49-18.65,33.82-30.43,59.09-24.17
		C964.94,479.14,981.5,502.45,981.43,533.81z"/>
	<path class="st2" d="M662.9,727.89c5.04,4.18,1.66,8.88,0.12,12.8c-2.66,6.77-0.42,11.6,3.59,16.87
		c9.96,13.1,22.02,24.19,33.36,35.98c2.21,2.3,5.01,4.19,5.74,7.62c-11.24,13.33-25.18,20.95-42.8,23.24
		c-15.67,2.04-31.03,6.41-46.57,9.56c-6.04,1.22-9.67,0.77-7.92-7.73c4.26-20.67,7.34-41.57,10.98-62.37
		c0.51-2.9,2.39-4.83,4.85-6.65C637.24,747.58,650.04,737.69,662.9,727.89z"/>
	<path class="st1" d="M374.69,943.89c87.73,0,175.47,0,263.2,0C550.13,975.23,462.4,971.78,374.69,943.89z"/>
	<path class="st1" d="M241.75,180.94c29.51-27.91,59.02-55.81,90.66-85.72c0,11.6,0.01,20.49,0,29.37
		c-0.01,9.12,0.02,18.25-0.05,27.37c-0.14,19.22-6.49,27.61-25.77,30.26c-21.16,2.91-42.51,0.59-63.79,1.14
		C242.45,182.55,242.1,181.75,241.75,180.94z"/>
	<path class="st2" d="M848.59,533.83c1.71,1.35,3.43,2.45,4.85,3.84c22.89,22.45,45.64,45.06,68.69,67.34
		c6.81,6.59,3.07,11.27-1.57,16.23c-4.8,5.14-9.38,8.53-16.06,1.75c-21.97-22.29-44.29-44.24-66.52-66.28
		c-3.23-3.2-5.09-6.78-2.61-11C838.42,540.54,843.26,537.16,848.59,533.83z"/>
	<path class="st1" d="M768.65,148.36c-32.91-6.43-47.59-35.17-68.68-56.07c1.13-7.95-3.07-14.75-5.41-23.17
		c8.59,3.69,13.53,10.13,18.97,15.78c15.31,15.87,30.41,31.95,45.51,48.04C763.23,137.4,767.75,141.78,768.65,148.36z"/>
	<path class="st1" d="M297.29,900.1c16.16-0.1,32.33-0.28,48.49-0.3c64.71-0.08,129.43-0.12,194.14-0.14
		c4.98,0,9.96,0.31,14.94,0.48c-14.35,1.86-28.77,0.98-43.14,1.01c-69.2,0.16-138.4,0.05-207.6,0.01
		C301.81,901.16,299.38,901.65,297.29,900.1z"/>
	<path class="st1" d="M590.99,900.16c31.34-0.13,62.68-0.31,94.02-0.38c11.42-0.03,22.83,0.19,34.24,0.29
		c-1.68,0.36-3.36,1.03-5.04,1.03c-39.66,0-79.32-0.06-118.97-0.16C593.83,900.95,592.41,900.44,590.99,900.16z"/>
	<path class="st0" d="M323.18,388.42c-0.53-103.06,82.93-189.87,186.83-188.68c105.26,1.2,187.05,86.07,186.27,192.67
		c-0.8,108.47-89.27,189.02-190.21,187.29C404.26,577.96,322.46,493.2,323.18,388.42z M652.51,388.83
		c1.25-85.53-68.49-144.73-142.06-145.16c-79.91-0.47-144.34,65.05-144.37,145.88c-0.03,81.5,63.25,146.13,143.12,146.17
		C589.68,535.76,652.54,471.34,652.51,388.83z"/>
	<path class="st2" d="M652.51,388.83c0.03,82.51-62.83,146.93-143.32,146.89c-79.87-0.04-143.15-64.67-143.12-146.17
		c0.03-80.84,64.47-146.35,144.37-145.88C584.03,244.1,653.77,303.3,652.51,388.83z M437.91,390.38c0.04,0,0.08,0,0.12,0
		c0,23.29,0.38,46.58-0.14,69.86c-0.31,13.58,5.14,23.51,16.58,29.82c11.36,6.26,23.06,4.84,33.36-2.57
		c32.02-23.04,64.18-45.92,95.46-69.94c20.26-15.56,19.87-38.92,0.48-55.9c-6.41-5.61-13.45-10.53-20.39-15.49
		c-24.92-17.79-49.75-35.7-74.96-53.07c-10.21-7.04-21.68-9.38-33.35-2.95c-11.88,6.54-17.53,16.5-17.27,30.38
		C438.22,343.8,437.91,367.09,437.91,390.38z"/>
	<path class="st0" d="M437.91,390.38c0-23.29,0.31-46.58-0.12-69.86c-0.26-13.87,5.4-23.83,17.27-30.38
		c11.67-6.43,23.14-4.09,33.35,2.95c25.21,17.37,50.05,35.28,74.96,53.07c6.95,4.96,13.98,9.88,20.39,15.49
		c19.4,16.98,19.78,40.34-0.48,55.9c-31.28,24.02-63.44,46.9-95.46,69.94c-10.3,7.41-22.01,8.83-33.36,2.57
		c-11.44-6.31-16.89-16.24-16.58-29.82c0.52-23.28,0.14-46.57,0.14-69.86C437.98,390.38,437.94,390.38,437.91,390.38z"/>
</g>
</svg>
